<?xml version="1.0" encoding="UTF-8" standalone="no"?>
<!DOCTYPE svg PUBLIC "-//W3C//DTD SVG 1.1//EN"
 "http://www.w3.org/Graphics/SVG/1.1/DTD/svg11.dtd">
<!-- Generated by graphviz version 2.43.0 (0)
 -->
<!-- Title: treeHelpers::ConcreteNode Pages: 1 -->
<svg width="862pt" height="180pt"
 viewBox="0.00 0.00 862.00 180.00" xmlns="http://www.w3.org/2000/svg" xmlns:xlink="http://www.w3.org/1999/xlink">
<g id="graph0" class="graph" transform="scale(1 1) rotate(0) translate(4 176)">
<title>treeHelpers::ConcreteNode</title>
<!-- Node1 -->
<g id="node1" class="node">
<title>Node1</title>
<g id="a_node1"><a xlink:title=" ">
<polygon fill="#bfbfbf" stroke="black" points="705,-76.5 705,-95.5 854,-95.5 854,-76.5 705,-76.5"/>
<text text-anchor="middle" x="779.5" y="-83.5" font-family="Helvetica,sans-Serif" font-size="10.00">treeHelpers::ConcreteNode</text>
</a>
</g>
</g>
<!-- Node2 -->
<g id="node2" class="node">
<title>Node2</title>
<g id="a_node2"><a xlink:href="classtreeHelpers_1_1RectNodeABC.html" target="_top" xlink:title="Abstract base class representing rectangle node.">
<polygon fill="none" stroke="black" points="521,-76.5 521,-95.5 668,-95.5 668,-76.5 521,-76.5"/>
<text text-anchor="middle" x="594.5" y="-83.5" font-family="Helvetica,sans-Serif" font-size="10.00">treeHelpers::RectNodeABC</text>
</a>
</g>
</g>
<!-- Node2&#45;&gt;Node1 -->
<g id="edge1" class="edge">
<title>Node2&#45;&gt;Node1</title>
<path fill="none" stroke="midnightblue" d="M678.37,-86C687.18,-86 696.1,-86 704.8,-86"/>
<polygon fill="midnightblue" stroke="midnightblue" points="678.09,-82.5 668.09,-86 678.09,-89.5 678.09,-82.5"/>
</g>
<!-- Node3 -->
<g id="node3" class="node">
<title>Node3</title>
<g id="a_node3"><a xlink:href="classshaderHelpers_1_1ShaderHelper.html" target="_top" xlink:title="Singleton providing shader load/reload and uniform access capabilities.">
<polygon fill="none" stroke="black" points="263,-152.5 263,-171.5 422,-171.5 422,-152.5 263,-152.5"/>
<text text-anchor="middle" x="342.5" y="-159.5" font-family="Helvetica,sans-Serif" font-size="10.00">shaderHelpers::ShaderHelper</text>
</a>
</g>
</g>
<!-- Node3&#45;&gt;Node2 -->
<g id="edge2" class="edge">
<title>Node3&#45;&gt;Node2</title>
<path fill="none" stroke="#9a32cd" stroke-dasharray="5,2" d="M405.03,-150.41C434.94,-144.1 471.21,-135.44 503,-125 528.19,-116.72 556.06,-104.17 574.12,-95.56"/>
<polygon fill="#9a32cd" stroke="#9a32cd" points="404.22,-147.01 395.14,-152.46 405.64,-153.86 404.22,-147.01"/>
<text text-anchor="middle" x="471.5" y="-144" font-family="Helvetica,sans-Serif" font-size="10.00"> gShInstance</text>
</g>
<!-- Node4 -->
<g id="node4" class="node">
<title>Node4</title>
<g id="a_node4"><a xlink:href="structstateHelpers_1_1WindowState.html" target="_top" xlink:title="Class that represents the state of the working window.">
<polygon fill="none" stroke="black" points="268,-114.5 268,-133.5 417,-133.5 417,-114.5 268,-114.5"/>
<text text-anchor="middle" x="342.5" y="-121.5" font-family="Helvetica,sans-Serif" font-size="10.00">stateHelpers::WindowState</text>
</a>
</g>
</g>
<!-- Node4&#45;&gt;Node2 -->
<g id="edge3" class="edge">
<title>Node4&#45;&gt;Node2</title>
<path fill="none" stroke="#9a32cd" stroke-dasharray="5,2" d="M421.96,-113.02C447.79,-109.32 476.64,-105.08 503,-101 514.02,-99.29 525.78,-97.4 537.05,-95.55"/>
<polygon fill="#9a32cd" stroke="#9a32cd" points="421.25,-109.59 411.85,-114.47 422.24,-116.52 421.25,-109.59"/>
<text text-anchor="middle" x="471.5" y="-113" font-family="Helvetica,sans-Serif" font-size="10.00"> gStatePtr</text>
</g>
<!-- Node5 -->
<g id="node5" class="node">
<title>Node5</title>
<g id="a_node5"><a xlink:href="structmeshHelpers_1_1MeshStyle.html" target="_top" xlink:title="Simple class retaining details about the style of the mesh.">
<polygon fill="none" stroke="black" points="273.5,-76.5 273.5,-95.5 411.5,-95.5 411.5,-76.5 273.5,-76.5"/>
<text text-anchor="middle" x="342.5" y="-83.5" font-family="Helvetica,sans-Serif" font-size="10.00">meshHelpers::MeshStyle</text>
</a>
</g>
</g>
<!-- Node5&#45;&gt;Node2 -->
<g id="edge4" class="edge">
<title>Node5&#45;&gt;Node2</title>
<path fill="none" stroke="#9a32cd" stroke-dasharray="5,2" d="M421.91,-86C453.56,-86 489.86,-86 520.9,-86"/>
<polygon fill="#9a32cd" stroke="#9a32cd" points="421.81,-82.5 411.81,-86 421.81,-89.5 421.81,-82.5"/>
<text text-anchor="middle" x="471.5" y="-89" font-family="Helvetica,sans-Serif" font-size="10.00"> gStyle</text>
</g>
<!-- Node6 -->
<g id="node6" class="node">
<title>Node6</title>
<g id="a_node6"><a xlink:href="classmeshHelpers_1_1RectMesh.html" target="_top" xlink:title="Basic rectangular mesh class encapsulation.">
<polygon fill="none" stroke="black" points="275,-38.5 275,-57.5 410,-57.5 410,-38.5 275,-38.5"/>
<text text-anchor="middle" x="342.5" y="-45.5" font-family="Helvetica,sans-Serif" font-size="10.00">meshHelpers::RectMesh</text>
</a>
</g>
</g>
<!-- Node6&#45;&gt;Node2 -->
<g id="edge5" class="edge">
<title>Node6&#45;&gt;Node2</title>
<path fill="none" stroke="#9a32cd" stroke-dasharray="5,2" d="M420.53,-58.77C446.72,-62.53 476.15,-66.84 503,-71 514.02,-72.71 525.78,-74.6 537.05,-76.45"/>
<polygon fill="#9a32cd" stroke="#9a32cd" points="420.68,-55.26 410.29,-57.31 419.69,-62.19 420.68,-55.26"/>
<text text-anchor="middle" x="471.5" y="-74" font-family="Helvetica,sans-Serif" font-size="10.00"> gMesh</text>
</g>
<!-- Node7 -->
<g id="node7" class="node">
<title>Node7</title>
<g id="a_node7"><a xlink:href="classshaderHelpers_1_1UniformKeeper.html" target="_top" xlink:title="Class that keeps track of a node&#39;s uniforms.">
<polygon fill="none" stroke="black" points="0,-60.5 0,-79.5 167,-79.5 167,-60.5 0,-60.5"/>
<text text-anchor="middle" x="83.5" y="-67.5" font-family="Helvetica,sans-Serif" font-size="10.00">shaderHelpers::UniformKeeper</text>
</a>
</g>
</g>
<!-- Node7&#45;&gt;Node6 -->
<g id="edge6" class="edge">
<title>Node7&#45;&gt;Node6</title>
<path fill="none" stroke="#9a32cd" stroke-dasharray="5,2" d="M177.56,-62.03C209.74,-59.28 245.14,-56.25 274.78,-53.71"/>
<polygon fill="#9a32cd" stroke="#9a32cd" points="176.9,-58.58 167.23,-62.92 177.49,-65.55 176.9,-58.58"/>
<text text-anchor="middle" x="215" y="-63" font-family="Helvetica,sans-Serif" font-size="10.00"> gUniKeeper</text>
</g>
<!-- Node8 -->
<g id="node8" class="node">
<title>Node8</title>
<g id="a_node8"><a xlink:href="structmeshHelpers_1_1RectMesh_1_1BoxModel.html" target="_top" xlink:title=" ">
<polygon fill="none" stroke="black" points="16,-11 16,-41 151,-41 151,-11 16,-11"/>
<text text-anchor="start" x="24" y="-29" font-family="Helvetica,sans-Serif" font-size="10.00">meshHelpers::RectMesh</text>
<text text-anchor="middle" x="83.5" y="-18" font-family="Helvetica,sans-Serif" font-size="10.00">::BoxModel</text>
</a>
</g>
</g>
<!-- Node8&#45;&gt;Node6 -->
<g id="edge7" class="edge">
<title>Node8&#45;&gt;Node6</title>
<path fill="none" stroke="#9a32cd" stroke-dasharray="5,2" d="M161.03,-32.55C197.21,-35.65 239.99,-39.31 274.81,-42.29"/>
<polygon fill="#9a32cd" stroke="#9a32cd" points="161.28,-29.06 151.02,-31.69 160.68,-36.03 161.28,-29.06"/>
<text text-anchor="middle" x="215" y="-42" font-family="Helvetica,sans-Serif" font-size="10.00"> gBox</text>
</g>
<!-- Node9 -->
<g id="node9" class="node">
<title>Node9</title>
<g id="a_node9"><a xlink:href="classtreeHelpers_1_1TreeStruct.html" target="_top" xlink:title="Class representing a tree structure of nodes.">
<polygon fill="none" stroke="black" points="278.5,-0.5 278.5,-19.5 406.5,-19.5 406.5,-0.5 278.5,-0.5"/>
<text text-anchor="middle" x="342.5" y="-7.5" font-family="Helvetica,sans-Serif" font-size="10.00">treeHelpers::TreeStruct</text>
</a>
</g>
</g>
<!-- Node9&#45;&gt;Node2 -->
<g id="edge8" class="edge">
<title>Node9&#45;&gt;Node2</title>
<path fill="none" stroke="#9a32cd" stroke-dasharray="5,2" d="M407.88,-21.56C437.25,-27.59 472.26,-35.84 503,-46 528.61,-54.46 556.84,-67.59 574.85,-76.48"/>
<polygon fill="#9a32cd" stroke="#9a32cd" points="408.23,-18.06 397.74,-19.52 406.85,-24.93 408.23,-18.06"/>
<text text-anchor="middle" x="471.5" y="-49" font-family="Helvetica,sans-Serif" font-size="10.00"> gTreeStruct</text>
</g>
</g>
</svg>
