<?xml version="1.0" encoding="UTF-8" standalone="no"?>
<!DOCTYPE svg PUBLIC "-//W3C//DTD SVG 1.1//EN"
 "http://www.w3.org/Graphics/SVG/1.1/DTD/svg11.dtd">
<!-- Generated by graphviz version 2.43.0 (0)
 -->
<!-- Title: meshHelpers::RectMesh Pages: 1 -->
<svg width="328pt" height="106pt"
 viewBox="0.00 0.00 328.00 106.00" xmlns="http://www.w3.org/2000/svg" xmlns:xlink="http://www.w3.org/1999/xlink">
<g id="graph0" class="graph" transform="scale(1 1) rotate(0) translate(4 102)">
<title>meshHelpers::RectMesh</title>
<!-- Node1 -->
<g id="node1" class="node">
<title>Node1</title>
<g id="a_node1"><a xlink:title="Basic rectangular mesh class encapsulation.">
<polygon fill="#bfbfbf" stroke="black" points="100,-0.5 100,-19.5 235,-19.5 235,-0.5 100,-0.5"/>
<text text-anchor="middle" x="167.5" y="-7.5" font-family="Helvetica,sans-Serif" font-size="10.00">meshHelpers::RectMesh</text>
</a>
</g>
</g>
<!-- Node2 -->
<g id="node2" class="node">
<title>Node2</title>
<g id="a_node2"><a xlink:href="classshaderHelpers_1_1UniformKeeper.html" target="_top" xlink:title="Class that keeps track of a node&#39;s uniforms.">
<polygon fill="none" stroke="black" points="0,-73 0,-92 167,-92 167,-73 0,-73"/>
<text text-anchor="middle" x="83.5" y="-80" font-family="Helvetica,sans-Serif" font-size="10.00">shaderHelpers::UniformKeeper</text>
</a>
</g>
</g>
<!-- Node2&#45;&gt;Node1 -->
<g id="edge1" class="edge">
<title>Node2&#45;&gt;Node1</title>
<path fill="none" stroke="#9a32cd" stroke-dasharray="5,2" d="M101.87,-66.08C118.8,-51.87 143.34,-31.27 157.12,-19.72"/>
<polygon fill="#9a32cd" stroke="#9a32cd" points="99.21,-63.75 93.8,-72.86 103.71,-69.11 99.21,-63.75"/>
<text text-anchor="middle" x="163.5" y="-41" font-family="Helvetica,sans-Serif" font-size="10.00"> gUniKeeper</text>
</g>
<!-- Node3 -->
<g id="node3" class="node">
<title>Node3</title>
<g id="a_node3"><a xlink:href="structmeshHelpers_1_1RectMesh_1_1BoxModel.html" target="_top" xlink:title=" ">
<polygon fill="none" stroke="black" points="185,-67.5 185,-97.5 320,-97.5 320,-67.5 185,-67.5"/>
<text text-anchor="start" x="193" y="-85.5" font-family="Helvetica,sans-Serif" font-size="10.00">meshHelpers::RectMesh</text>
<text text-anchor="middle" x="252.5" y="-74.5" font-family="Helvetica,sans-Serif" font-size="10.00">::BoxModel</text>
</a>
</g>
</g>
<!-- Node3&#45;&gt;Node1 -->
<g id="edge2" class="edge">
<title>Node3&#45;&gt;Node1</title>
<path fill="none" stroke="#9a32cd" stroke-dasharray="5,2" d="M227.19,-60.51C210.86,-46.96 190.45,-30.03 178.22,-19.89"/>
<polygon fill="#9a32cd" stroke="#9a32cd" points="225.37,-63.54 235.3,-67.23 229.84,-58.16 225.37,-63.54"/>
<text text-anchor="middle" x="226.5" y="-41" font-family="Helvetica,sans-Serif" font-size="10.00"> gBox</text>
</g>
</g>
</svg>
